# xmcd
#
# Track frame offsets:
#	150
#	17256
#	53474
#	72342
#	94674
#	122934
#	142761
#	157311
#	169278
#	187698
#	202050
#	216915
#	238332
#	258789
#	282064
#	302456
#	327000
#
# Disc length: 4816 seconds
#
# Revision: 1
# Processed by: cddbd v1.5.2PL0 Copyright (c) Steve Scherf et al.
# Submitted via: audiograbber 1.83.01
#
DISCID=e812ce11
DTITLE=Various Artist - The Alligator Records 45th Anniversary Collection CD2
DYEAR=2016
DGENRE=Blues
TTITLE0=James Cotton and Joe Bonnamassa - Cotton Mouth Man
TTITLE1=Albert Collins - If Trouble Was Money
TTITLE2=JJ Grey and Mofro - 99 Shades Of Crazy
TTITLE3=Jarekus Singleton - I Refuse To Lose
TTITLE4=Michael "Iron Man" Burks - Empty Promises
TTITLE5=Roomful Of Blues - Turn It On, Turn It Up
TTITLE6=Lazy Lester - Raining In My Heart
TTITLE7=Johnny Winter - Shake Your Moneymaker
TTITLE8=Curtis Salgado - Walk A Mile In My Blues
TTITLE9=The Kentucky Headhunters w. Johnnie Johnson - Stumblin'
TTITLE10=Billy Boy Arnold - I Ain't Got You
TTITLE11=Ann Rabson - Gonna Stop You From Giving Me The Blues
TTITLE12=Smokin' Joe Kubek and Bnois King - Freezer Burn
TTITLE13=Guitar Shorty - I'm Gonna Leave You
TTITLE14=A.C. Reed and Bonnie Raitt - She's Fine
TTITLE15=Luther Allison - Will It Ever Change
TTITLE16=The Holmes Brothers - Amazing Grace
EXTD=
EXTT0=
EXTT1=
EXTT2=
EXTT3=
EXTT4=
EXTT5=
EXTT6=
EXTT7=
EXTT8=
EXTT9=
EXTT10=
EXTT11=
EXTT12=
EXTT13=
EXTT14=
EXTT15=
EXTT16=
PLAYORDER=
